<mxfile host="app.diagrams.net" modified="2024-06-03T17:28:59.777Z" agent="Mozilla/5.0 (Windows NT 10.0; Win64; x64) AppleWebKit/537.36 (KHTML, like Gecko) Chrome/125.0.0.0 Safari/537.36" etag="KqgUXu7g1brK0Vi2L8KI" version="24.4.4" type="device">
  <diagram name="Page-1" id="1o5NBN_-YtogOUEHKtkq">
    <mxGraphModel dx="1478" dy="653" grid="1" gridSize="10" guides="1" tooltips="1" connect="1" arrows="1" fold="1" page="1" pageScale="1" pageWidth="850" pageHeight="1100" math="0" shadow="0">
      <root>
        <mxCell id="0" />
        <mxCell id="1" parent="0" />
        <mxCell id="wrVXOTNMAptrDW2oVe_X-1" value="Authors" style="swimlane;whiteSpace=wrap;html=1;" vertex="1" parent="1">
          <mxGeometry x="610" y="920" width="200" height="120" as="geometry" />
        </mxCell>
        <mxCell id="wrVXOTNMAptrDW2oVe_X-3" value="&lt;ul&gt;&lt;li&gt;&lt;u&gt;Author ID&lt;/u&gt;&lt;/li&gt;&lt;li&gt;Author_First_Name&lt;/li&gt;&lt;li&gt;Author_Last_Name&lt;/li&gt;&lt;li&gt;Author_DOB *&lt;/li&gt;&lt;li&gt;Author_Contact Details&lt;/li&gt;&lt;/ul&gt;" style="text;html=1;align=left;verticalAlign=middle;whiteSpace=wrap;rounded=0;" vertex="1" parent="wrVXOTNMAptrDW2oVe_X-1">
          <mxGeometry y="30" width="200" height="90" as="geometry" />
        </mxCell>
        <mxCell id="wrVXOTNMAptrDW2oVe_X-4" value="Customers" style="swimlane;whiteSpace=wrap;html=1;" vertex="1" parent="1">
          <mxGeometry x="60" y="670" width="200" height="140" as="geometry" />
        </mxCell>
        <mxCell id="wrVXOTNMAptrDW2oVe_X-5" value="&lt;ul&gt;&lt;li&gt;&lt;u&gt;Customer_ID&lt;/u&gt;&lt;/li&gt;&lt;li&gt;Customer_Name&lt;/li&gt;&lt;li&gt;Customer_Street_name&lt;/li&gt;&lt;li&gt;Customer_Area&lt;/li&gt;&lt;li&gt;Customer_PO&lt;/li&gt;&lt;li&gt;Customer_Phone&lt;/li&gt;&lt;li&gt;Customer_Email&lt;/li&gt;&lt;/ul&gt;" style="text;html=1;align=left;verticalAlign=middle;whiteSpace=wrap;rounded=0;" vertex="1" parent="wrVXOTNMAptrDW2oVe_X-4">
          <mxGeometry y="30" width="200" height="110" as="geometry" />
        </mxCell>
        <mxCell id="wrVXOTNMAptrDW2oVe_X-55" style="edgeStyle=orthogonalEdgeStyle;rounded=0;orthogonalLoop=1;jettySize=auto;html=1;exitX=1;exitY=0.5;exitDx=0;exitDy=0;entryX=0.5;entryY=0;entryDx=0;entryDy=0;" edge="1" parent="1" source="wrVXOTNMAptrDW2oVe_X-6" target="wrVXOTNMAptrDW2oVe_X-48">
          <mxGeometry relative="1" as="geometry">
            <mxPoint x="470" y="570" as="targetPoint" />
          </mxGeometry>
        </mxCell>
        <mxCell id="wrVXOTNMAptrDW2oVe_X-6" value="Orders" style="swimlane;whiteSpace=wrap;html=1;" vertex="1" parent="1">
          <mxGeometry x="50" y="475" width="200" height="150" as="geometry" />
        </mxCell>
        <mxCell id="wrVXOTNMAptrDW2oVe_X-23" value="&lt;font style=&quot;font-size: 10px;&quot;&gt;1&lt;/font&gt;" style="text;html=1;align=center;verticalAlign=middle;whiteSpace=wrap;rounded=0;" vertex="1" parent="wrVXOTNMAptrDW2oVe_X-6">
          <mxGeometry x="-40" y="45" width="60" height="30" as="geometry" />
        </mxCell>
        <mxCell id="wrVXOTNMAptrDW2oVe_X-7" value="&lt;ul&gt;&lt;li&gt;&lt;u&gt;Order_ID&lt;/u&gt;&lt;/li&gt;&lt;li&gt;&lt;b&gt;Customer_ID&lt;/b&gt;&lt;/li&gt;&lt;li&gt;Order_Date *&lt;/li&gt;&lt;li&gt;Order_Total&lt;/li&gt;&lt;li&gt;&lt;b&gt;Staff_ID&lt;/b&gt;&lt;/li&gt;&lt;li&gt;&lt;b&gt;Shift_ID&lt;/b&gt;&lt;/li&gt;&lt;/ul&gt;" style="text;html=1;align=left;verticalAlign=middle;whiteSpace=wrap;rounded=0;" vertex="1" parent="wrVXOTNMAptrDW2oVe_X-6">
          <mxGeometry y="30" width="200" height="120" as="geometry" />
        </mxCell>
        <mxCell id="wrVXOTNMAptrDW2oVe_X-8" value="Order_Items" style="swimlane;whiteSpace=wrap;html=1;" vertex="1" parent="1">
          <mxGeometry x="70" y="860" width="200" height="100" as="geometry" />
        </mxCell>
        <mxCell id="wrVXOTNMAptrDW2oVe_X-9" value="&lt;ul&gt;&lt;li&gt;&lt;u&gt;Item_number&lt;/u&gt;&lt;/li&gt;&lt;li&gt;&lt;b&gt;Order_ID&lt;/b&gt;&lt;/li&gt;&lt;li&gt;&lt;b&gt;Book_ID&lt;/b&gt;&lt;/li&gt;&lt;li&gt;Item_price&lt;/li&gt;&lt;/ul&gt;" style="text;html=1;align=left;verticalAlign=middle;whiteSpace=wrap;rounded=0;" vertex="1" parent="wrVXOTNMAptrDW2oVe_X-8">
          <mxGeometry y="30" width="200" height="60" as="geometry" />
        </mxCell>
        <mxCell id="wrVXOTNMAptrDW2oVe_X-10" value="Books" style="swimlane;whiteSpace=wrap;html=1;" vertex="1" parent="1">
          <mxGeometry x="325" y="900" width="200" height="140" as="geometry" />
        </mxCell>
        <mxCell id="wrVXOTNMAptrDW2oVe_X-11" value="&lt;ul&gt;&lt;li&gt;&lt;u&gt;Book_ID&lt;/u&gt;&lt;/li&gt;&lt;li&gt;Book_Category_Description&lt;/li&gt;&lt;li&gt;&lt;span style=&quot;background-color: initial;&quot;&gt;ISBN&lt;/span&gt;&lt;br&gt;&lt;/li&gt;&lt;li&gt;Book_Title&lt;/li&gt;&lt;li&gt;Date_of_publication *&lt;/li&gt;&lt;li&gt;&lt;u&gt;Author_ID&lt;/u&gt;&lt;/li&gt;&lt;/ul&gt;" style="text;html=1;align=left;verticalAlign=middle;whiteSpace=wrap;rounded=0;" vertex="1" parent="wrVXOTNMAptrDW2oVe_X-10">
          <mxGeometry y="30" width="200" height="100" as="geometry" />
        </mxCell>
        <mxCell id="wrVXOTNMAptrDW2oVe_X-14" value="Staff" style="swimlane;whiteSpace=wrap;html=1;" vertex="1" parent="1">
          <mxGeometry x="350" y="582" width="200" height="110" as="geometry" />
        </mxCell>
        <mxCell id="wrVXOTNMAptrDW2oVe_X-15" value="&lt;ul&gt;&lt;li&gt;&lt;u&gt;Staff_ID&lt;/u&gt;&lt;/li&gt;&lt;li&gt;Staff_Name&lt;/li&gt;&lt;li&gt;Hiring_Date *&lt;/li&gt;&lt;li&gt;Employment_Status&lt;/li&gt;&lt;/ul&gt;" style="text;html=1;align=left;verticalAlign=middle;whiteSpace=wrap;rounded=0;" vertex="1" parent="wrVXOTNMAptrDW2oVe_X-14">
          <mxGeometry y="30" width="200" height="80" as="geometry" />
        </mxCell>
        <mxCell id="wrVXOTNMAptrDW2oVe_X-17" value="Scheduling" style="swimlane;whiteSpace=wrap;html=1;" vertex="1" parent="1">
          <mxGeometry x="350" y="720" width="200" height="130" as="geometry" />
        </mxCell>
        <mxCell id="wrVXOTNMAptrDW2oVe_X-18" value="&lt;ul&gt;&lt;li&gt;&lt;u&gt;Shift_ID&lt;/u&gt;&lt;/li&gt;&lt;li&gt;Start_time&lt;/li&gt;&lt;li&gt;End_time&lt;/li&gt;&lt;li&gt;&lt;b&gt;Staff_ID&lt;/b&gt;&lt;/li&gt;&lt;li&gt;Shift_type(Morning/Evening)&lt;/li&gt;&lt;li&gt;Shift_Date *&lt;/li&gt;&lt;/ul&gt;" style="text;html=1;align=left;verticalAlign=middle;whiteSpace=wrap;rounded=0;" vertex="1" parent="wrVXOTNMAptrDW2oVe_X-17">
          <mxGeometry y="30" width="200" height="90" as="geometry" />
        </mxCell>
        <mxCell id="wrVXOTNMAptrDW2oVe_X-21" style="edgeStyle=orthogonalEdgeStyle;rounded=0;orthogonalLoop=1;jettySize=auto;html=1;entryX=1;entryY=0.35;entryDx=0;entryDy=0;entryPerimeter=0;exitX=0.997;exitY=0.203;exitDx=0;exitDy=0;exitPerimeter=0;" edge="1" parent="1" source="wrVXOTNMAptrDW2oVe_X-7" target="wrVXOTNMAptrDW2oVe_X-9">
          <mxGeometry relative="1" as="geometry">
            <Array as="points">
              <mxPoint x="820" y="529" />
              <mxPoint x="820" y="880" />
              <mxPoint x="310" y="880" />
              <mxPoint x="310" y="911" />
            </Array>
          </mxGeometry>
        </mxCell>
        <mxCell id="wrVXOTNMAptrDW2oVe_X-24" style="edgeStyle=orthogonalEdgeStyle;rounded=0;orthogonalLoop=1;jettySize=auto;html=1;exitX=0;exitY=0.5;exitDx=0;exitDy=0;entryX=0;entryY=0.161;entryDx=0;entryDy=0;entryPerimeter=0;" edge="1" parent="1" source="wrVXOTNMAptrDW2oVe_X-9" target="wrVXOTNMAptrDW2oVe_X-11">
          <mxGeometry relative="1" as="geometry">
            <Array as="points">
              <mxPoint x="30" y="920" />
              <mxPoint x="30" y="1030" />
              <mxPoint x="298" y="1030" />
              <mxPoint x="298" y="946" />
            </Array>
          </mxGeometry>
        </mxCell>
        <mxCell id="wrVXOTNMAptrDW2oVe_X-25" value="&lt;font style=&quot;font-size: 10px;&quot;&gt;1&lt;/font&gt;" style="text;html=1;align=center;verticalAlign=middle;whiteSpace=wrap;rounded=0;" vertex="1" parent="1">
          <mxGeometry x="21" y="894" width="60" height="30" as="geometry" />
        </mxCell>
        <mxCell id="wrVXOTNMAptrDW2oVe_X-27" style="edgeStyle=orthogonalEdgeStyle;rounded=0;orthogonalLoop=1;jettySize=auto;html=1;exitX=1.004;exitY=0.845;exitDx=0;exitDy=0;entryX=0;entryY=0.5;entryDx=0;entryDy=0;exitPerimeter=0;" edge="1" parent="1" source="wrVXOTNMAptrDW2oVe_X-11" target="wrVXOTNMAptrDW2oVe_X-3">
          <mxGeometry relative="1" as="geometry" />
        </mxCell>
        <mxCell id="wrVXOTNMAptrDW2oVe_X-28" value="&lt;font style=&quot;font-size: 10px;&quot;&gt;1&lt;/font&gt;" style="text;html=1;align=center;verticalAlign=middle;whiteSpace=wrap;rounded=0;" vertex="1" parent="1">
          <mxGeometry x="514" y="991" width="60" height="30" as="geometry" />
        </mxCell>
        <mxCell id="wrVXOTNMAptrDW2oVe_X-32" style="edgeStyle=orthogonalEdgeStyle;rounded=0;orthogonalLoop=1;jettySize=auto;html=1;exitX=-0.003;exitY=0.318;exitDx=0;exitDy=0;exitPerimeter=0;entryX=0;entryY=0.25;entryDx=0;entryDy=0;" edge="1" parent="1" source="wrVXOTNMAptrDW2oVe_X-7" target="wrVXOTNMAptrDW2oVe_X-5">
          <mxGeometry relative="1" as="geometry">
            <Array as="points">
              <mxPoint x="20" y="543" />
              <mxPoint x="20" y="728" />
            </Array>
          </mxGeometry>
        </mxCell>
        <mxCell id="wrVXOTNMAptrDW2oVe_X-33" value="&lt;font style=&quot;font-size: 10px;&quot;&gt;1&lt;/font&gt;" style="text;html=1;align=center;verticalAlign=middle;whiteSpace=wrap;rounded=0;" vertex="1" parent="1">
          <mxGeometry x="240" y="500" width="60" height="30" as="geometry" />
        </mxCell>
        <mxCell id="wrVXOTNMAptrDW2oVe_X-34" style="edgeStyle=orthogonalEdgeStyle;rounded=0;orthogonalLoop=1;jettySize=auto;html=1;exitX=1.001;exitY=0.676;exitDx=0;exitDy=0;entryX=0;entryY=0.25;entryDx=0;entryDy=0;exitPerimeter=0;" edge="1" parent="1" source="wrVXOTNMAptrDW2oVe_X-7" target="wrVXOTNMAptrDW2oVe_X-15">
          <mxGeometry relative="1" as="geometry">
            <Array as="points">
              <mxPoint x="330" y="586" />
              <mxPoint x="330" y="632" />
            </Array>
          </mxGeometry>
        </mxCell>
        <mxCell id="wrVXOTNMAptrDW2oVe_X-35" style="edgeStyle=orthogonalEdgeStyle;rounded=0;orthogonalLoop=1;jettySize=auto;html=1;exitX=0.999;exitY=0.817;exitDx=0;exitDy=0;entryX=0;entryY=0.25;entryDx=0;entryDy=0;exitPerimeter=0;" edge="1" parent="1" source="wrVXOTNMAptrDW2oVe_X-7" target="wrVXOTNMAptrDW2oVe_X-18">
          <mxGeometry relative="1" as="geometry" />
        </mxCell>
        <mxCell id="wrVXOTNMAptrDW2oVe_X-36" value="&lt;font style=&quot;font-size: 10px;&quot;&gt;1&lt;/font&gt;" style="text;html=1;align=center;verticalAlign=middle;whiteSpace=wrap;rounded=0;" vertex="1" parent="1">
          <mxGeometry x="240" y="560" width="60" height="30" as="geometry" />
        </mxCell>
        <mxCell id="wrVXOTNMAptrDW2oVe_X-37" value="&lt;font style=&quot;font-size: 10px;&quot;&gt;1&lt;/font&gt;" style="text;html=1;align=center;verticalAlign=middle;whiteSpace=wrap;rounded=0;" vertex="1" parent="1">
          <mxGeometry x="240" y="595" width="60" height="30" as="geometry" />
        </mxCell>
        <mxCell id="wrVXOTNMAptrDW2oVe_X-38" style="edgeStyle=orthogonalEdgeStyle;rounded=0;orthogonalLoop=1;jettySize=auto;html=1;exitX=1;exitY=0.25;exitDx=0;exitDy=0;entryX=0.999;entryY=0.671;entryDx=0;entryDy=0;entryPerimeter=0;" edge="1" parent="1" source="wrVXOTNMAptrDW2oVe_X-15" target="wrVXOTNMAptrDW2oVe_X-18">
          <mxGeometry relative="1" as="geometry" />
        </mxCell>
        <mxCell id="wrVXOTNMAptrDW2oVe_X-39" value="&lt;font style=&quot;font-size: 10px;&quot;&gt;1&lt;/font&gt;" style="text;html=1;align=center;verticalAlign=middle;whiteSpace=wrap;rounded=0;" vertex="1" parent="1">
          <mxGeometry x="530" y="605" width="60" height="30" as="geometry" />
        </mxCell>
        <mxCell id="wrVXOTNMAptrDW2oVe_X-41" value="&lt;div&gt;∞&lt;/div&gt;" style="text;html=1;align=center;verticalAlign=middle;whiteSpace=wrap;rounded=0;" vertex="1" parent="1">
          <mxGeometry x="10" y="700" width="60" height="30" as="geometry" />
        </mxCell>
        <mxCell id="wrVXOTNMAptrDW2oVe_X-42" value="&lt;div&gt;∞&lt;/div&gt;" style="text;html=1;align=center;verticalAlign=middle;whiteSpace=wrap;rounded=0;" vertex="1" parent="1">
          <mxGeometry x="310" y="605" width="60" height="30" as="geometry" />
        </mxCell>
        <mxCell id="wrVXOTNMAptrDW2oVe_X-43" value="&lt;div&gt;∞&lt;/div&gt;" style="text;html=1;align=center;verticalAlign=middle;whiteSpace=wrap;rounded=0;" vertex="1" parent="1">
          <mxGeometry x="530" y="780" width="60" height="30" as="geometry" />
        </mxCell>
        <mxCell id="wrVXOTNMAptrDW2oVe_X-44" value="&lt;div&gt;∞&lt;/div&gt;" style="text;html=1;align=center;verticalAlign=middle;whiteSpace=wrap;rounded=0;" vertex="1" parent="1">
          <mxGeometry x="290" y="740" width="60" height="30" as="geometry" />
        </mxCell>
        <mxCell id="wrVXOTNMAptrDW2oVe_X-45" value="&lt;div&gt;∞&lt;/div&gt;" style="text;html=1;align=center;verticalAlign=middle;whiteSpace=wrap;rounded=0;" vertex="1" parent="1">
          <mxGeometry x="279" y="924" width="60" height="30" as="geometry" />
        </mxCell>
        <mxCell id="wrVXOTNMAptrDW2oVe_X-46" value="&lt;div&gt;∞&lt;/div&gt;" style="text;html=1;align=center;verticalAlign=middle;whiteSpace=wrap;rounded=0;" vertex="1" parent="1">
          <mxGeometry x="260" y="885" width="60" height="30" as="geometry" />
        </mxCell>
        <mxCell id="wrVXOTNMAptrDW2oVe_X-47" value="&lt;div&gt;∞&lt;/div&gt;" style="text;html=1;align=center;verticalAlign=middle;whiteSpace=wrap;rounded=0;" vertex="1" parent="1">
          <mxGeometry x="558" y="970" width="60" height="30" as="geometry" />
        </mxCell>
        <mxCell id="wrVXOTNMAptrDW2oVe_X-48" value="Date" style="swimlane;whiteSpace=wrap;html=1;" vertex="1" parent="1">
          <mxGeometry x="590" y="640" width="200" height="130" as="geometry" />
        </mxCell>
        <mxCell id="wrVXOTNMAptrDW2oVe_X-49" value="&lt;ul&gt;&lt;li&gt;&lt;u&gt;Date_ID&lt;/u&gt;&lt;/li&gt;&lt;li&gt;Day&lt;/li&gt;&lt;li&gt;Date&lt;/li&gt;&lt;li&gt;Month&lt;/li&gt;&lt;li&gt;Year&lt;/li&gt;&lt;/ul&gt;" style="text;html=1;align=left;verticalAlign=middle;whiteSpace=wrap;rounded=0;" vertex="1" parent="wrVXOTNMAptrDW2oVe_X-48">
          <mxGeometry y="30" width="200" height="90" as="geometry" />
        </mxCell>
        <mxCell id="wrVXOTNMAptrDW2oVe_X-50" value="&lt;div style=&quot;text-align: left; font-size: 16px; line-height: 290%;&quot;&gt;&lt;font style=&quot;font-size: 16px;&quot;&gt;&lt;u style=&quot;background-color: initial;&quot;&gt;Primary Key&lt;/u&gt;&lt;span style=&quot;background-color: initial;&quot;&gt;&amp;nbsp;-- Underlined&lt;/span&gt;&lt;/font&gt;&lt;/div&gt;&lt;div style=&quot;text-align: left; font-size: 16px;&quot;&gt;&lt;font style=&quot;font-size: 16px;&quot;&gt;&lt;b&gt;Foreign Key &lt;/b&gt;-- Bolded&lt;br&gt;&lt;/font&gt;&lt;/div&gt;&lt;div style=&quot;text-align: left;&quot;&gt;&lt;font style=&quot;font-size: 16px;&quot;&gt;Foreign Key referring to Date -- &lt;/font&gt;&lt;font style=&quot;font-size: 27px;&quot;&gt;*&lt;/font&gt;&lt;br&gt;&lt;/div&gt;" style="text;html=1;align=center;verticalAlign=middle;whiteSpace=wrap;rounded=0;" vertex="1" parent="1">
          <mxGeometry x="395" y="350" width="315" height="90" as="geometry" />
        </mxCell>
        <mxCell id="wrVXOTNMAptrDW2oVe_X-51" value="&lt;font style=&quot;font-size: 30px;&quot;&gt;Legend&lt;/font&gt;" style="text;html=1;align=center;verticalAlign=middle;whiteSpace=wrap;rounded=0;fontStyle=4" vertex="1" parent="1">
          <mxGeometry x="460" y="310" width="144" height="30" as="geometry" />
        </mxCell>
        <mxCell id="wrVXOTNMAptrDW2oVe_X-52" style="edgeStyle=orthogonalEdgeStyle;rounded=0;orthogonalLoop=1;jettySize=auto;html=1;entryX=0.5;entryY=1;entryDx=0;entryDy=0;" edge="1" parent="1" target="wrVXOTNMAptrDW2oVe_X-48">
          <mxGeometry relative="1" as="geometry">
            <mxPoint x="550" y="830" as="sourcePoint" />
            <Array as="points">
              <mxPoint x="550" y="830" />
              <mxPoint x="690" y="830" />
            </Array>
          </mxGeometry>
        </mxCell>
        <mxCell id="wrVXOTNMAptrDW2oVe_X-53" value="&lt;font style=&quot;font-size: 10px;&quot;&gt;1&lt;/font&gt;" style="text;html=1;align=center;verticalAlign=middle;whiteSpace=wrap;rounded=0;" vertex="1" parent="1">
          <mxGeometry x="532" y="807" width="60" height="31" as="geometry" />
        </mxCell>
        <mxCell id="wrVXOTNMAptrDW2oVe_X-54" value="&lt;div&gt;∞&lt;/div&gt;" style="text;html=1;align=center;verticalAlign=middle;whiteSpace=wrap;rounded=0;" vertex="1" parent="1">
          <mxGeometry x="647" y="768" width="60" height="30" as="geometry" />
        </mxCell>
        <mxCell id="wrVXOTNMAptrDW2oVe_X-56" value="&lt;font style=&quot;font-size: 10px;&quot;&gt;1&lt;/font&gt;" style="text;html=1;align=center;verticalAlign=middle;whiteSpace=wrap;rounded=0;" vertex="1" parent="1">
          <mxGeometry x="240" y="526" width="60" height="30" as="geometry" />
        </mxCell>
        <mxCell id="wrVXOTNMAptrDW2oVe_X-57" value="&lt;div&gt;∞&lt;/div&gt;" style="text;html=1;align=center;verticalAlign=middle;whiteSpace=wrap;rounded=0;" vertex="1" parent="1">
          <mxGeometry x="672" y="608" width="60" height="30" as="geometry" />
        </mxCell>
      </root>
    </mxGraphModel>
  </diagram>
</mxfile>
